<?xml version="1.0" encoding="utf-8"?>
<!-- Generator: Adobe Illustrator 24.3.0, SVG Export Plug-In . SVG Version: 6.00 Build 0)  -->
<svg version="1.1" id="Layer_1" xmlns="http://www.w3.org/2000/svg" xmlns:xlink="http://www.w3.org/1999/xlink" x="0px" y="0px"
	 viewBox="0 0 800 800" enable-background="new 0 0 800 800" xml:space="preserve">
<g>
	<path fill="#BFC6E4" d="M630.798,130.167c2.345,0,4.253,1.908,4.253,4.255v92.044H505.775v-96.299H630.798z"/>
	<path fill="#BFC6E4" d="M279.11,72.611c0-2.003,1.63-3.633,3.634-3.633h200.748c2.003,0,3.634,1.63,3.634,3.633v38.905v114.949
		H279.11V72.611z"/>
	<path fill="#787EBB" d="M675.457,456.83l-0.169,0.817c-4.093,25.569-6.17,25.835-14.803,26.518l-415.798,23.29
		c-4.543-0.074-9.234-2.338-11.042-5.883c-0.27-1.322-0.54-2.645-0.81-3.967v-0.092l-48.123-235.681
		c-0.109-3.759-0.801-7.561-1.475-11.246c-0.291-1.621-0.674-3.709-0.902-5.471h78.125h226.665h18.65h147.926h62.794
		c5.364,0,9.789,4.112,10.286,9.35L675.457,456.83z"/>
	<path fill="#1D1751" d="M716.495,226.465h-62.794v-92.044c0-12.631-10.272-22.905-22.903-22.905H505.775V72.611
		c0-12.287-9.994-22.283-22.284-22.283H282.744c-12.289,0-22.284,9.997-22.284,22.283v153.854h-81.781
		c-0.437,0-0.768,0.107-1.18,0.133c-2.139-10.477-4.278-20.953-6.417-31.43c-1.167-5.715-1.268-14.702-4.066-19.914
		c-6.406-11.928-28.928-16.368-40.67-21.438c-19.174-8.28-38.347-16.559-57.521-24.839c-10.904-4.709-20.413,11.354-9.413,16.104
		c14.934,6.449,29.868,12.898,44.803,19.347c10.643,4.596,21.286,9.192,31.93,13.788c2.079,0.898,9.903,4.787,13.703,5.941
		c-0.002,0.024,0.005,0.047,0.004,0.071c-0.289,3.814,1.856,9.093,2.622,12.842c3.059,14.98,6.118,29.961,9.176,44.941
		c1.475,7.225,2.951,14.45,4.426,21.675v0.104l48.132,235.715c0.115,2.757,0.682,5.411,1.633,7.906
		c0.401,1.961,0.8,3.921,1.201,5.881c5.053,24.746,10.106,49.492,15.158,74.238c0.811,3.971,5.101,6.846,8.992,6.846
		c125.403,0,250.806,0,376.21,0c18.248,0,36.497,0,54.744,0c12.001,0,12.021-18.65,0-18.65c-125.403,0-250.806,0-376.209,0
		c-15.717,0-31.434,0-47.151,0c-3.418-16.744-6.838-33.489-10.257-50.233c2.062,0.394,4.195,0.614,6.385,0.614h0.259l416.463-23.326
		l0.209-0.016c22.798-1.801,27.438-14.737,31.791-41.753l51.839-204.402v-1.163C745.476,239.467,732.477,226.465,716.495,226.465z
		 M630.798,130.167c2.345,0,4.253,1.908,4.253,4.255v92.044H505.775v-96.299H630.798z M279.11,72.611
		c0-2.003,1.63-3.633,3.634-3.633h200.748c2.003,0,3.634,1.63,3.634,3.633v38.905v114.949H279.11V72.611z M675.457,456.83
		l-0.169,0.817c-4.093,25.569-6.17,25.835-14.803,26.518l-415.798,23.29c-4.543-0.074-9.234-2.338-11.042-5.883
		c-0.27-1.322-0.54-2.645-0.81-3.967v-0.092l-48.123-235.681c-0.109-3.759-0.801-7.561-1.475-11.246
		c-0.291-1.621-0.674-3.709-0.902-5.471h78.125h226.665h18.65h147.926h62.794c5.364,0,9.789,4.112,10.286,9.35L675.457,456.83z"/>
	<path fill="#1D1751" d="M586.809,322.914c-89.248,0-178.497,0-267.746,0c-12.001,0-12.021,18.65,0,18.65
		c89.248,0,178.497,0,267.746,0C598.809,341.565,598.83,322.914,586.809,322.914z"/>
	<path fill="#1D1751" d="M566.588,411.23c-75.768,0-151.537,0-227.305,0c-12,0-12.021,18.65,0,18.65c75.768,0,151.537,0,227.305,0
		C578.59,429.88,578.609,411.23,566.588,411.23z"/>
	<g>
		<path fill="#1D1751" d="M344.13,749.672c30.73,0,55.727-25,55.727-55.727c0-30.727-24.997-55.727-55.727-55.727
			s-55.727,25-55.727,55.727C288.403,724.673,313.401,749.672,344.13,749.672z M344.13,656.868
			c20.444,0,37.077,16.633,37.077,37.077c0,20.444-16.633,37.077-37.077,37.077c-20.444,0-37.077-16.633-37.077-37.077
			C307.053,673.501,323.686,656.868,344.13,656.868z"/>
		<path fill="#1D1751" d="M613.469,693.945c0-30.727-24.997-55.727-55.727-55.727c-30.73,0-55.727,25-55.727,55.727
			c0,30.728,24.997,55.727,55.727,55.727C588.471,749.672,613.469,724.673,613.469,693.945z M520.664,693.945
			c0-20.444,16.633-37.077,37.077-37.077s37.077,16.633,37.077,37.077c0,20.444-16.633,37.077-37.077,37.077
			S520.664,714.389,520.664,693.945z"/>
		<circle fill="#83C9EF" cx="344.13" cy="693.945" r="37.077"/>
		
			<ellipse transform="matrix(0.1602 -0.9871 0.9871 0.1602 -216.5833 1133.3269)" fill="#83C9EF" cx="557.741" cy="693.945" rx="37.077" ry="37.077"/>
	</g>
</g>
</svg>
